<?xml version="1.0" encoding="UTF-8"?>
<svg width="512px" height="512px" viewBox="0 0 512 512" version="1.1" xmlns="http://www.w3.org/2000/svg" xmlns:xlink="http://www.w3.org/1999/xlink">
    <!-- Generator: Sketch 47.1 (45422) - http://www.bohemiancoding.com/sketch -->
    <title>icon</title>
    <desc>Created with Sketch.</desc>
    <defs></defs>
    <g id="Page-1" stroke="none" stroke-width="1" fill="none" fill-rule="evenodd">
        <g id="icon">
            <g>
                <circle id="Oval-Copy" fill="#FFF500" cx="256" cy="256" r="256"></circle>
                <g id="Group" transform="translate(101.000000, 155.000000)" fill="#000000">
                    <path d="M9.19504023,0.820502419 C4.41775301,0.820502419 0.564094447,4.67175806 0.564094447,9.44607581 L0.564094447,38.8992194 C0.564094447,43.6735371 4.41775301,47.5247927 9.19504023,47.5247927 L301.804948,47.5247927 C306.582235,47.5247927 310.435892,43.6735371 310.435892,38.8992194 L310.435892,9.44607581 C310.435892,4.67175806 306.582235,0.820502419 301.804948,0.820502419 L9.19504023,0.820502419 Z" id="Shape"></path>
                    <path d="M9.19504023,79.0816992 C4.41775301,79.0816992 0.564094447,82.9329879 0.564094447,87.7072726 L0.564094447,117.160218 C0.564094447,121.934734 4.41775301,125.786089 9.19504023,125.786089 L301.804948,125.786089 C306.582235,125.786089 310.435892,121.934734 310.435892,117.160218 L310.435892,87.7072726 C310.435892,82.9329879 306.582235,79.0816992 301.804948,79.0816992 L9.19504023,79.0816992 Z" id="Shape"></path>
                    <path d="M9.19504023,155.870169 C4.41775301,155.870169 0.564094447,159.721524 0.564094447,164.49604 L0.564094447,193.94925 C0.564094447,198.723435 4.41775301,202.57446 9.19504023,202.57446 L301.804948,202.57446 C306.582235,202.57446 310.435892,198.723435 310.435892,193.94925 L310.435892,164.49604 C310.435892,159.721524 306.582235,155.870169 301.804948,155.870169 L9.19504023,155.870169 Z" id="Shape"></path>
                </g>
            </g>
        </g>
    </g>
</svg>